<?xml version="1.0" encoding="UTF-8" standalone="no"?>
<svg width="512" height="512" viewBox="0 0 512 512" fill="none" xmlns="http://www.w3.org/2000/svg">
  <!-- Background circle -->
  <circle cx="256" cy="256" r="240" fill="#4285F4" />
  
  <!-- Journal book shape -->
  <path d="M140 120C140 109.954 148.954 101 159 101H353C363.046 101 372 109.954 372 120V392C372 402.046 363.046 411 353 411H159C148.954 411 140 402.046 140 392V120Z" fill="white" />
  
  <!-- Journal binding -->
  <rect x="240" y="101" width="32" height="310" fill="#34A853" />
  
  <!-- Journal lines -->
  <rect x="160" y="150" width="70" height="4" rx="2" fill="#DADCE0" />
  <rect x="160" y="180" width="70" height="4" rx="2" fill="#DADCE0" />
  <rect x="160" y="210" width="70" height="4" rx="2" fill="#DADCE0" />
  <rect x="160" y="240" width="70" height="4" rx="2" fill="#DADCE0" />
  <rect x="160" y="270" width="70" height="4" rx="2" fill="#DADCE0" />
  <rect x="160" y="300" width="70" height="4" rx="2" fill="#DADCE0" />
  <rect x="160" y="330" width="70" height="4" rx="2" fill="#DADCE0" />
  <rect x="160" y="360" width="70" height="4" rx="2" fill="#DADCE0" />
  
  <!-- Text on right side -->
  <rect x="282" y="150" width="70" height="4" rx="2" fill="#DADCE0" />
  <rect x="282" y="180" width="70" height="4" rx="2" fill="#DADCE0" />
  <rect x="282" y="210" width="70" height="4" rx="2" fill="#DADCE0" />
  <rect x="282" y="240" width="70" height="4" rx="2" fill="#DADCE0" />
  <rect x="282" y="270" width="70" height="4" rx="2" fill="#DADCE0" />
  <rect x="282" y="300" width="70" height="4" rx="2" fill="#DADCE0" />
  <rect x="282" y="330" width="70" height="4" rx="2" fill="#DADCE0" />
  <rect x="282" y="360" width="70" height="4" rx="2" fill="#DADCE0" />
  
  <!-- Auto-Journal text -->
  <path d="M256 440C256 440 320 440 350 460" stroke="#FBBC05" stroke-width="8" stroke-linecap="round" />
  <path d="M256 440C256 440 192 440 162 460" stroke="#EA4335" stroke-width="8" stroke-linecap="round" />
</svg>
